# xmcd CD database file
#
# Track frame offsets:
#	150
#	19800
#	40442
#	60822
#	81700
#	102225
#	126212
#	147607
#	171862
#	193712
#	212847
#
# Disc length: 3120 seconds
#
# Revision: 0
# Processed by: cddbd v1.5.2PL0 Copyright (c) Steve Scherf et al.
# Submitted via: CDex 1.51
#
DISCID=a30c2e0b
DTITLE=Earl Klugh - Peculiar Situation
DYEAR=1999
DGENRE=Jazz
TTITLE0=PECULIAR SITUATION
TTITLE1=NOW AND AGAIN (FEAT. ROBERTA FLACK)
TTITLE2=PRIVATE AFFAIR
TTITLE3=THN ICE
TTITLE4=I'M FALLING
TTITLE5=ROMANTIC INTENT
TTITLE6=DESERT PARADISE
TTITLE7=FOREVER GIRL
TTITLE8=BEFORE YOU GO
TTITLE9=SOUTHERN DOG
TTITLE10=WHEN I LOOK AT YOU
EXTD=YEAR: 1999
EXTT0=
EXTT1=
EXTT2=
EXTT3=
EXTT4=
EXTT5=
EXTT6=
EXTT7=
EXTT8=
EXTT9=
EXTT10=
PLAYORDER=
